<svg xmlns="http://www.w3.org/2000/svg" width="196.25" height="35" viewBox="0 0 196.25 35"><rect class="svg__rect" x="0" y="0" width="84.72" height="35" fill="#FFD036"/><rect class="svg__rect" x="82.72" y="0" width="113.53" height="35" fill="#FFC300"/><path class="svg__text" d="M17.33 22L14.22 22L14.22 13.47L17.14 13.47Q18.59 13.47 19.34 14.05Q20.10 14.63 20.10 15.78L20.10 15.78Q20.10 16.36 19.78 16.83Q19.47 17.30 18.86 17.56L18.86 17.56Q19.55 17.75 19.93 18.26Q20.31 18.78 20.31 19.51L20.31 19.51Q20.31 20.71 19.53 21.36Q18.76 22 17.33 22L17.33 22ZM15.70 18.15L15.70 20.82L17.35 20.82Q18.04 20.82 18.44 20.47Q18.83 20.13 18.83 19.51L18.83 19.51Q18.83 18.18 17.47 18.15L17.47 18.15L15.70 18.15ZM15.70 14.66L15.70 17.06L17.15 17.06Q17.84 17.06 18.23 16.75Q18.62 16.43 18.62 15.86L18.62 15.86Q18.62 15.23 18.26 14.95Q17.90 14.66 17.14 14.66L17.14 14.66L15.70 14.66ZM24.64 19.16L24.64 19.16L24.64 13.47L26.12 13.47L26.12 19.18Q26.12 20.03 26.55 20.48Q26.98 20.93 27.83 20.93L27.83 20.93Q29.54 20.93 29.54 19.13L29.54 19.13L29.54 13.47L31.02 13.47L31.02 19.17Q31.02 20.53 30.15 21.32Q29.28 22.12 27.83 22.12L27.83 22.12Q26.36 22.12 25.50 21.33Q24.64 20.55 24.64 19.16ZM37.63 18.86L34.76 13.47L36.41 13.47L38.37 17.51L40.33 13.47L41.97 13.47L39.11 18.86L39.11 22L37.63 22L37.63 18.86ZM53.34 22L51.86 22L51.86 13.47L53.79 13.47L56.25 20.01L58.70 13.47L60.62 13.47L60.62 22L59.14 22L59.14 19.19L59.29 15.43L56.77 22L55.71 22L53.19 15.43L53.34 19.19L53.34 22ZM70.94 22L65.36 22L65.36 13.47L70.89 13.47L70.89 14.66L66.84 14.66L66.84 17.02L70.34 17.02L70.34 18.19L66.84 18.19L66.84 20.82L70.94 20.82L70.94 22Z" fill="#FFFFFF"/><path class="svg__text" d="M98.33 22L95.90 22L99.61 13.60L101.95 13.60L105.67 22L103.20 22L102.54 20.37L98.99 20.37L98.33 22ZM100.76 15.93L99.68 18.61L101.84 18.61L100.76 15.93ZM116.37 17.80L116.37 17.80Q116.37 16.54 116.96 15.54Q117.56 14.55 118.61 13.99Q119.67 13.43 120.98 13.43L120.98 13.43Q122.14 13.43 123.06 13.84Q123.98 14.25 124.60 15.02L124.60 15.02L123.09 16.39Q122.27 15.40 121.11 15.40L121.11 15.40Q120.42 15.40 119.89 15.70Q119.36 16 119.06 16.54Q118.76 17.09 118.76 17.80L118.76 17.80Q118.76 18.51 119.06 19.05Q119.36 19.60 119.89 19.90Q120.42 20.20 121.11 20.20L121.11 20.20Q122.27 20.20 123.09 19.22L123.09 19.22L124.60 20.58Q123.99 21.35 123.06 21.76Q122.14 22.17 120.98 22.17L120.98 22.17Q119.67 22.17 118.61 21.61Q117.56 21.05 116.96 20.05Q116.37 19.06 116.37 17.80ZM128.71 17.80L128.71 17.80Q128.71 16.55 129.31 15.55Q129.91 14.56 130.98 14.00Q132.04 13.43 133.37 13.43L133.37 13.43Q134.70 13.43 135.76 14.00Q136.83 14.56 137.43 15.55Q138.04 16.55 138.04 17.80L138.04 17.80Q138.04 19.05 137.43 20.04Q136.83 21.04 135.77 21.60Q134.71 22.17 133.37 22.17L133.37 22.17Q132.04 22.17 130.98 21.60Q129.91 21.04 129.31 20.04Q128.71 19.05 128.71 17.80ZM131.10 17.80L131.10 17.80Q131.10 18.51 131.40 19.05Q131.71 19.60 132.22 19.90Q132.74 20.20 133.37 20.20L133.37 20.20Q134.01 20.20 134.53 19.90Q135.04 19.60 135.34 19.05Q135.64 18.51 135.64 17.80L135.64 17.80Q135.64 17.09 135.34 16.54Q135.04 16 134.53 15.70Q134.01 15.40 133.37 15.40L133.37 15.40Q132.73 15.40 132.22 15.70Q131.71 16 131.40 16.54Q131.10 17.09 131.10 17.80ZM145.15 22L142.77 22L142.77 13.60L149.36 13.60L149.36 15.44L145.15 15.44L145.15 17.28L148.86 17.28L148.86 19.12L145.15 19.12L145.15 22ZM156.33 22L153.95 22L153.95 13.60L160.55 13.60L160.55 15.44L156.33 15.44L156.33 17.28L160.04 17.28L160.04 19.12L156.33 19.12L156.33 22ZM171.88 22L165.14 22L165.14 13.60L171.73 13.60L171.73 15.44L167.50 15.44L167.50 16.85L171.23 16.85L171.23 18.63L167.50 18.63L167.50 20.17L171.88 20.17L171.88 22ZM183.43 22L176.69 22L176.69 13.60L183.28 13.60L183.28 15.44L179.04 15.44L179.04 16.85L182.78 16.85L182.78 18.63L179.04 18.63L179.04 20.17L183.43 20.17L183.43 22Z" fill="#FFFFFF" x="95.72"/></svg>